<svg width="101" height="16" viewBox="0 0 101 16" fill="none" xmlns="http://www.w3.org/2000/svg">
<path d="M0.848 12V0.799999H2.496C5.936 0.799999 8.224 0.943999 8.224 3.904C8.224 5.28 7.392 6.112 5.792 6.528L9.104 12H7.36L4.224 6.816C3.696 6.864 2.96 6.88 2.336 6.88V12H0.848ZM2.336 1.184V6.512C5.072 6.512 6.736 6.096 6.736 3.712C6.736 1.04 4.704 1.184 2.336 1.184ZM9.105 7.872C9.105 5.264 11.025 3.36 13.601 3.36C15.649 3.36 16.721 4.768 16.721 5.92C16.721 6.72 16.177 7.376 15.041 7.376H10.593V7.68C10.593 9.28 11.585 11.264 13.841 11.264C15.249 11.264 16.113 10.272 16.785 9.184C16.833 9.104 16.977 9.248 16.961 9.296C16.129 10.976 15.121 12.16 13.329 12.16C10.881 12.16 9.105 10.304 9.105 7.872ZM10.593 7.136H14.289C15.089 7.136 15.553 6.368 15.553 5.552C15.553 4.608 14.945 3.6 13.537 3.6C12.049 3.6 10.849 5.248 10.593 7.136ZM24.4545 3.568H24.8065L21.2065 12H20.5985L17.0625 3.568H18.6785L21.5585 10.464L24.4545 3.568ZM27.8045 12.16C26.4605 12.16 25.3405 11.376 25.3405 10.128C25.3405 8.88 26.1085 7.92 28.8125 7.216C29.3565 7.072 29.9805 6.944 30.6845 6.816V6C30.6845 4.432 29.7405 3.696 28.7005 3.696C27.5645 3.696 26.9085 4.592 26.9085 5.776C26.9085 6.192 26.5565 6.4 26.2205 6.4C25.8685 6.4 25.5165 6.192 25.5165 5.76C25.5165 4.32 28.0285 3.36 29.1805 3.36C30.6685 3.36 32.1725 3.808 32.1725 6.144V10.784C32.1725 11.232 32.3165 11.552 32.6845 11.552C32.9565 11.552 33.1965 11.376 33.4845 11.008C33.5325 10.928 33.7245 11.088 33.6925 11.152C33.2765 11.728 32.5725 12.176 31.9005 12.176C30.8445 12.176 30.7005 11.28 30.7005 10.832V9.664H30.6685C30.3165 10.784 29.3405 12.16 27.8045 12.16ZM28.4125 11.312C29.5165 11.312 30.2685 10.416 30.6845 9.072V7.056C29.9645 7.168 29.3725 7.312 28.8925 7.456C26.8765 8.112 26.7645 9.088 26.7645 9.728C26.7645 10.688 27.5325 11.312 28.4125 11.312ZM38.9261 0.799999H40.4141C43.8541 0.799999 46.2861 1.104 46.2861 4.064C46.2861 5.904 44.3181 7.152 41.7741 7.152C41.3421 7.152 40.8781 7.12 40.4141 7.04V12H38.9261V0.799999ZM40.4141 1.184V6.656C40.7181 6.72 41.0381 6.752 41.3421 6.752C43.1341 6.752 44.8141 5.744 44.8141 3.712C44.8141 1.04 42.7821 1.184 40.4141 1.184ZM49.3576 12H47.8696V5.472C47.8696 4.528 47.7736 3.872 46.8296 3.92C46.7496 3.92 46.7496 3.712 46.8136 3.696C47.4856 3.568 48.4296 3.456 49.1176 3.328C49.2776 3.296 49.3576 3.312 49.3576 3.44V5.152L49.8056 4.704C50.7336 3.776 50.9416 3.344 51.8216 3.344C52.1896 3.344 52.7016 3.504 52.9576 3.76C53.4216 4.224 52.9256 4.928 52.3976 4.928C52.2536 4.928 52.1096 4.88 51.9816 4.752C51.6776 4.448 51.3576 4.128 51.0216 4.128C50.8616 4.128 50.7016 4.192 50.5416 4.352L49.3576 5.52V12ZM56.1483 12.16C54.8043 12.16 53.6842 11.376 53.6842 10.128C53.6842 8.88 54.4523 7.92 57.1562 7.216C57.7003 7.072 58.3243 6.944 59.0283 6.816V6C59.0283 4.432 58.0843 3.696 57.0443 3.696C55.9083 3.696 55.2523 4.592 55.2523 5.776C55.2523 6.192 54.9003 6.4 54.5643 6.4C54.2122 6.4 53.8603 6.192 53.8603 5.76C53.8603 4.32 56.3723 3.36 57.5243 3.36C59.0123 3.36 60.5163 3.808 60.5163 6.144V10.784C60.5163 11.232 60.6603 11.552 61.0283 11.552C61.3003 11.552 61.5403 11.376 61.8283 11.008C61.8763 10.928 62.0683 11.088 62.0363 11.152C61.6203 11.728 60.9163 12.176 60.2443 12.176C59.1883 12.176 59.0443 11.28 59.0443 10.832V9.664H59.0123C58.6603 10.784 57.6843 12.16 56.1483 12.16ZM56.7563 11.312C57.8602 11.312 58.6123 10.416 59.0283 9.072V7.056C58.3083 7.168 57.7163 7.312 57.2363 7.456C55.2203 8.112 55.1083 9.088 55.1083 9.728C55.1083 10.688 55.8763 11.312 56.7563 11.312ZM63.1296 11.504L62.7456 8.608C62.7456 8.56 62.9696 8.496 62.9856 8.576C63.5296 10.832 64.8736 11.936 66.0096 11.936C67.3536 11.936 68.2336 11.12 68.2336 10.144C68.2336 7.744 62.7456 8.848 62.7456 5.664C62.7456 3.92 64.1856 3.36 65.3216 3.36C66.2336 3.36 67.3216 3.648 68.2176 3.888L68.5696 6.72C68.5696 6.768 68.3776 6.8 68.3776 6.768C67.9136 4.352 66.5536 3.6 65.3696 3.6C64.4416 3.6 63.7216 4.08 63.7216 5.04C63.7216 7.36 69.2096 6.336 69.2096 9.344C69.2096 11.248 67.5296 12.176 66.0576 12.176C65.1456 12.176 63.6896 11.776 63.1296 11.504ZM70.1675 7.872C70.1675 5.264 72.0875 3.36 74.6635 3.36C76.7115 3.36 77.7835 4.768 77.7835 5.92C77.7835 6.72 77.2395 7.376 76.1035 7.376H71.6555V7.68C71.6555 9.28 72.6475 11.264 74.9035 11.264C76.3115 11.264 77.1755 10.272 77.8475 9.184C77.8955 9.104 78.0395 9.248 78.0235 9.296C77.1915 10.976 76.1835 12.16 74.3915 12.16C71.9435 12.16 70.1675 10.304 70.1675 7.872ZM71.6555 7.136H75.3515C76.1515 7.136 76.6155 6.368 76.6155 5.552C76.6155 4.608 76.0075 3.6 74.5995 3.6C73.1115 3.6 71.9115 5.248 71.6555 7.136ZM81.876 12.176C80.788 12.176 79.876 11.552 79.876 9.952V4.032H78.58L78.644 3.616C79.988 3.616 80.852 2.256 81.14 0.752C81.172 0.655999 81.38 0.688 81.38 0.752V3.552H83.604L83.38 4.032H81.364V9.872C81.364 10.976 81.796 11.424 82.404 11.424C82.884 11.424 83.284 11.152 83.78 10.416C83.828 10.352 84.02 10.496 83.988 10.56C83.316 11.616 82.708 12.176 81.876 12.176ZM90.9105 3.568H91.3105L87.2785 13.12C86.4305 15.136 85.3265 16 84.1585 16C83.0865 16 82.6065 15.52 82.3825 15.136C82.2385 14.88 82.1585 14.608 82.2065 14.304C82.2705 13.872 82.6385 13.664 82.9905 13.664C83.3425 13.664 83.6465 13.872 83.5985 14.288C83.5185 14.896 83.6625 15.76 84.3505 15.76C85.4705 15.76 86.3025 14.432 86.7025 13.504L87.5025 11.616L84.1105 3.568H85.7425L88.3025 9.728L90.9105 3.568ZM94.3514 12.16C93.0074 12.16 91.8874 11.376 91.8874 10.128C91.8874 8.88 92.6554 7.92 95.3594 7.216C95.9034 7.072 96.5274 6.944 97.2314 6.816V6C97.2314 4.432 96.2874 3.696 95.2474 3.696C94.1114 3.696 93.4554 4.592 93.4554 5.776C93.4554 6.192 93.1034 6.4 92.7674 6.4C92.4154 6.4 92.0634 6.192 92.0634 5.76C92.0634 4.32 94.5754 3.36 95.7274 3.36C97.2154 3.36 98.7194 3.808 98.7194 6.144V10.784C98.7194 11.232 98.8634 11.552 99.2314 11.552C99.5034 11.552 99.7434 11.376 100.031 11.008C100.079 10.928 100.271 11.088 100.239 11.152C99.8234 11.728 99.1194 12.176 98.4474 12.176C97.3914 12.176 97.2474 11.28 97.2474 10.832V9.664H97.2154C96.8634 10.784 95.8874 12.16 94.3514 12.16ZM94.9594 11.312C96.0634 11.312 96.8154 10.416 97.2314 9.072V7.056C96.5114 7.168 95.9194 7.312 95.4394 7.456C93.4234 8.112 93.3114 9.088 93.3114 9.728C93.3114 10.688 94.0794 11.312 94.9594 11.312Z" fill="white"/>
</svg>
